<svg width="24" height="24" viewBox="0 0 24 24" fill="none" xmlns="http://www.w3.org/2000/svg">
<path d="M22 12C22 13.3261 21.4732 14.5979 20.5355 15.5355C19.5979 16.4732 18.3261 17 17 17C15.6739 17 14.4021 16.4732 13.4645 15.5355C12.5268 14.5979 12 13.3261 12 12M22 12C22 17.5228 17.5228 22 12 22C6.47715 22 2 17.5228 2 12M22 12C22 6.47715 17.5228 2 12 2C6.47715 2 2 6.47715 2 12M12 12C12 10.6739 11.4732 9.40215 10.5355 8.46447C9.59785 7.52678 8.32608 7 7 7C5.67392 7 4.40215 7.52678 3.46447 8.46447C2.52678 9.40215 2 10.6739 2 12M12 12C10.8463 11.337 9.4765 11.1593 8.19187 11.5062C6.90725 11.8532 5.81306 12.6962 5.15002 13.8499C4.48698 15.0036 4.3094 16.3734 4.65634 17.6581C5.00328 18.9427 5.84633 20.0369 7.00002 20.6999M12 12C12.5647 12.3283 13.1885 12.5421 13.8359 12.6293C14.4832 12.7165 15.1414 12.6754 15.7728 12.5082C16.4043 12.3411 16.9966 12.0512 17.516 11.6551C18.0354 11.2591 18.4717 10.7646 18.8 10.1999C19.1283 9.63522 19.3422 9.0114 19.4294 8.36406C19.5166 7.71673 19.4755 7.05855 19.3083 6.42711C19.1412 5.79567 18.8513 5.20334 18.4553 4.68393C18.0592 4.16452 17.5647 3.72821 17 3.3999M7 3.29992C8.14043 2.63688 9.49754 2.45403 10.7728 2.7916C12.048 3.12916 13.137 3.95949 13.8 5.09992C14.463 6.24035 14.6459 7.59747 14.3083 8.87271C13.9708 10.148 13.1404 11.2369 12 11.8999C10.8596 12.563 10.0292 13.6519 9.69167 14.9271C9.35411 16.2024 9.53696 17.5595 10.2 18.6999C10.863 19.8404 11.952 20.6707 13.2272 21.0082C14.5025 21.3458 15.8596 21.163 17 20.4999" stroke="#1D4ED8" stroke-width="2" stroke-linecap="round" stroke-linejoin="round"/>
</svg>
